<?xml version="1.0" encoding="UTF-8"?>
<svg version="1.1" xmlns="http://www.w3.org/2000/svg" width="632" height="189">
<path d="M0 0 C13.2256068 3.75115809 26.8272903 5.84329546 40.57348633 6.35644531 C41.25862305 6.38367676 41.94375977 6.4109082 42.6496582 6.43896484 C62.56211618 7.12545245 81.84302268 4.83537734 101.07348633 -0.33105469 C117.5754982 -4.7323447 131.80879208 -6.29290959 147.46801758 1.86425781 C158.43319554 8.3143625 166.64583472 17.88518373 170.12111187 30.31512451 C171.41049486 35.7794084 171.8656043 40.89376207 171.84814453 46.49707031 C171.85325546 47.36174927 171.85836639 48.22642822 171.8636322 49.11730957 C171.87741872 51.94709385 171.87658006 54.77663165 171.87426758 57.60644531 C171.87815984 59.58984465 171.8824956 61.57324317 171.88725281 63.55664062 C171.89469099 67.702176 171.89444071 71.84762617 171.88916016 75.99316406 C171.88336147 81.28889299 171.90031799 86.58427264 171.92350483 91.87994385 C171.93827834 95.97218849 171.93910907 100.06434963 171.9359951 104.15661621 C171.93650625 106.10852756 171.94170501 108.06044383 171.95180702 110.0123291 C171.96422785 112.74705363 171.95734672 115.48110549 171.94580078 118.21582031 C171.95344452 119.01088989 171.96108826 119.80595947 171.96896362 120.62512207 C171.89340088 128.77613414 169.88653416 135.81279204 164.25317383 141.85253906 C158.66662739 146.85444692 152.54613706 148.81975059 145.14599609 148.60083008 C134.22047756 147.56292137 124.85679172 139.44647819 116.13598633 133.41894531 C114.53880666 132.32552525 112.94088966 131.23318155 111.34228516 130.1418457 C108.80292799 128.40777261 106.26425222 126.67275755 103.72801208 124.93412781 C94.08041478 118.32071512 84.37808129 111.78892496 74.67550659 105.25656128 C70.00842814 102.11378584 65.3438215 98.96734643 60.67895508 95.82128906 C59.09718725 94.75477283 57.51540223 93.68828211 55.93359375 92.62182617 C55.28130295 92.18204941 54.62901215 91.74227264 53.95695496 91.28916931 C53.50041031 90.98137039 53.04386566 90.67357147 52.57348633 90.35644531 C47.50281616 92.8074528 42.7975074 95.38179298 38.12036133 98.54003906 C37.21746368 99.14637177 37.21746368 99.14637177 36.29632568 99.76495361 C34.98889434 100.6434041 33.68280293 101.52385153 32.37792969 102.40609741 C29.53328756 104.32775205 26.67963398 106.23584204 23.82666016 108.14509583 C21.4596213 109.72940825 19.09358522 111.31520851 16.7277832 112.90136719 C15.48001099 113.73776733 15.48001099 113.73776733 14.20703125 114.59106445 C12.39523953 115.80558804 10.58355966 117.02027849 8.77197266 118.23510742 C2.85896027 122.1985234 -3.06165619 126.15020837 -8.99084473 130.08938599 C-10.93785117 131.38569687 -12.88230335 132.68585289 -14.82409668 133.98995972 C-17.57067402 135.83403705 -20.32565475 137.66488306 -23.08276367 139.49316406 C-24.29974945 140.31678436 -24.29974945 140.31678436 -25.5413208 141.15704346 C-32.99978382 146.06724836 -39.99665888 149.25875345 -49.01245117 147.91894531 C-56.80395578 146.10344909 -61.90576836 141.91763513 -66.42651367 135.35644531 C-68.89477752 130.648 -68.72238473 126.16869458 -68.71704102 120.9831543 C-68.72375824 120.04584976 -68.73047546 119.10854523 -68.73739624 118.14283752 C-68.75638174 115.04601727 -68.76030145 111.9494139 -68.76245117 108.85253906 C-68.76888124 106.69124768 -68.77560976 104.52995717 -68.78262329 102.3686676 C-68.79459926 97.83519475 -68.79830403 93.3017981 -68.79711914 88.76831055 C-68.79691652 82.98393695 -68.82415882 77.2000578 -68.85866356 71.41580105 C-68.88100571 66.9485504 -68.88495436 62.48141707 -68.88389969 58.01411629 C-68.88624694 55.88325365 -68.89502063 53.75238736 -68.91056442 51.62158012 C-69.02298292 34.61095385 -67.62231529 21.43309372 -55.61791992 8.39160156 C-39.57122716 -6.85442462 -19.82102959 -5.62866311 0 0 Z " fill="#48ABF6" transform="translate(68.426513671875,19.6435546875)"/>
<path d="M0 0 C1.24003784 0.00749268 1.24003784 0.00749268 2.50512695 0.01513672 C14.00384346 0.34043452 23.1458601 5.19143515 31.33203125 13.0859375 C39.19899677 21.57031044 43.29277569 32.73292053 42.94140625 44.3046875 C41.44370602 57.25403411 36.61522505 67.91084462 26.6875 76.5 C14.39890504 84.36027245 1.62517687 86.59659857 -12.6953125 83.8515625 C-23.22658459 80.34113847 -32.80939455 72.31544774 -37.890625 62.4296875 C-41.52594953 54.1403486 -41.52594953 54.1403486 -40.3125 50.5 C-39.3225 51.16 -38.3325 51.82 -37.3125 52.5 C-32.71647987 53.25287187 -28.67825355 53.13754167 -24.75 50.5 C-23.945625 49.84 -23.14125 49.18 -22.3125 48.5 C-21.796875 49.69625 -21.28125 50.8925 -20.75 52.125 C-17.84176079 57.96217764 -13.27654337 61.90644091 -7.3125 64.5 C0.17647665 66.43780913 7.07623699 65.17523655 13.734375 61.3125 C19.34797063 57.09030841 21.9316977 51.20658703 23.03125 44.359375 C23.34239623 37.77344641 21.09157507 32.58605438 17.5 27.25 C12.79848478 22.65296289 7.49383169 19.93038461 0.82421875 19.40625 C-5.98998993 19.70522808 -11.87701022 22.08049186 -16.83984375 26.73828125 C-19.33917217 29.72819403 -20.77391236 32.93047667 -22.3125 36.5 C-23.116875 35.84 -23.92125 35.18 -24.75 34.5 C-28.70278613 31.85229053 -32.69387484 31.77781498 -37.3125 32.5 C-39.52571638 33.45457521 -39.52571638 33.45457521 -41.3125 34.5 C-39.45336006 22.97333237 -33.72687326 14.07597333 -24.40625 7.06640625 C-16.83836157 2.00613165 -9.05061416 -0.07259104 0 0 Z " fill="#FAFAFA" transform="translate(475.3125,49.5)"/>
<path d="M0 0 C6.43035347 1.5182779 10.46624664 8.3816102 14.34765625 13.23828125 C17.29027484 16.89914086 20.37823381 20.42879939 23.46875 23.96484375 C27.29235092 28.34657018 31.06031202 32.75546324 34.71875 37.27734375 C35.42386719 38.13714844 36.12898437 38.99695313 36.85546875 39.8828125 C38.33121551 41.68589681 39.79095341 43.50215029 41.23828125 45.328125 C45.70400472 51.00433042 45.70400472 51.00433042 52.09375 53.77734375 C55.34815 53.51489214 56.88560215 53.22924787 59.7109375 51.9453125 C60.78601563 51.45675781 61.86109375 50.96820313 62.96875 50.46484375 C63.09281007 54.50309441 63.18330045 58.54060013 63.2434082 62.58032227 C63.26847617 63.95291477 63.30254082 65.32537477 63.34594727 66.69750977 C63.40692531 68.67535071 63.43236009 70.65418559 63.45703125 72.6328125 C63.48321533 73.82156982 63.50939941 75.01032715 63.53637695 76.23510742 C62.7985301 80.43337666 61.29299842 81.87938362 57.96875 84.46484375 C53.1452822 85.23047356 51.17615162 85.20983624 47.03125 82.65234375 C43.52168446 79.28391355 40.54588088 75.40471333 37.51171875 71.61328125 C34.79946602 68.22963657 31.98587791 64.93800878 29.15625 61.65234375 C28.65448242 61.06904297 28.15271484 60.48574219 27.63574219 59.88476562 C26.60532991 58.68752469 25.57456471 57.4905874 24.54345703 56.29394531 C21.88816944 53.20969498 19.24140351 50.11814707 16.59375 47.02734375 C15.19088398 45.39054786 13.78806106 43.75381131 12.37988281 42.12158203 C11.3812394 40.94912629 10.39759621 39.7638166 9.42480469 38.56982422 C8.91079102 37.9460791 8.39677734 37.32233398 7.8671875 36.6796875 C7.40747559 36.11241943 6.94776367 35.54515137 6.47412109 34.96069336 C3.91702227 32.41976821 1.65274961 31.53919153 -1.90625 31.15234375 C-5.51580878 31.51329963 -7.84762546 32.78435113 -11.03125 34.46484375 C-11.15531007 30.42659309 -11.24580045 26.38908737 -11.3059082 22.34936523 C-11.33097617 20.97677273 -11.36504082 19.60431273 -11.40844727 18.23217773 C-11.46942531 16.25433679 -11.49486009 14.27550191 -11.51953125 12.296875 C-11.54571533 11.10811768 -11.57189941 9.91936035 -11.59887695 8.69458008 C-10.48917249 2.380481 -6.35309867 -0.48596464 0 0 Z " fill="#FAFAFA" transform="translate(563.03125,49.53515625)"/>
<path d="M0 0 C6.74181253 4.21363283 11.22272156 11.38521542 16.0078125 17.61328125 C20.13308285 22.84310209 20.13308285 22.84310209 26.125 25.1875 C29.85672472 25.00693267 32.51610208 24.248479 36 23 C35.58145977 26.56499379 35.13684559 30.12626855 34.6875 33.6875 C34.56955078 34.69490234 34.45160156 35.70230469 34.33007812 36.74023438 C32.91853118 47.70686836 32.91853118 47.70686836 28.25 51.375 C24.85374969 52.31840286 22.40246299 51.83569266 19 51 C14.64264433 48.02128309 11.70804603 44.34362107 8.5625 40.1875 C7.60011713 38.93790877 6.63658569 37.68920123 5.671875 36.44140625 C4.98448242 35.55026123 4.98448242 35.55026123 4.28320312 34.64111328 C1.95856845 31.66809306 -0.5059912 28.83103701 -3 26 C-7.38379137 27.54661798 -9.57327722 30.9827525 -12.25 34.5625 C-13.22892697 35.8293179 -14.20940205 37.09494099 -15.19140625 38.359375 C-16.87034623 40.53311878 -18.54431404 42.71039222 -20.21484375 44.890625 C-25.52476211 51.40973269 -25.52476211 51.40973269 -30.125 52.375 C-34.07913964 51.99234133 -35.74033121 51.22642093 -38.68017578 48.62255859 C-41.09674983 45.65168343 -41.40789761 42.335869 -41.875 38.625 C-42.04902344 37.53058594 -42.04902344 37.53058594 -42.2265625 36.4140625 C-42.90286966 31.90534812 -43.10817251 27.55526449 -43 23 C-42.505 23.165 -42.01 23.33 -41.5 23.5 C-35.10542326 24.81112504 -35.10542326 24.81112504 -29.08984375 22.9296875 C-23.87737422 18.6698048 -19.86974387 13.24941614 -15.85620117 7.88818359 C-11.32236591 1.87224411 -7.91294286 -1.57027271 0 0 Z " fill="#FAFAFA" transform="translate(359,82)"/>
<path d="M0 0 C3.20107207 0.69194891 4.80809257 1.97042194 6.93359375 4.41796875 C8.34721779 9.64951812 7.64585835 14.31843564 6.859375 19.578125 C6.73427048 20.44561874 6.60916595 21.31311249 6.48027039 22.20689392 C6.21340365 24.03389988 5.94164419 25.86019708 5.6652832 27.68579102 C5.24730014 30.47242591 4.85634449 33.26200054 4.46679688 36.05273438 C4.20346276 37.83227468 3.93854189 39.61158106 3.671875 41.390625 C3.50127312 42.63610863 3.50127312 42.63610863 3.32722473 43.90675354 C2.55929989 48.78131807 1.56061501 51.82344532 -2.06640625 55.41796875 C-4.93248754 56.85100939 -6.87941408 56.7244103 -10.06640625 56.41796875 C-15.64535362 53.26007401 -15.64535362 53.26007401 -17.06640625 50.41796875 C-16.91007028 41.26322537 -15.4872517 32.0854245 -14.12939453 23.04003906 C-13.91881636 21.61231247 -13.71747543 20.1831961 -13.52490234 18.75292969 C-13.24119212 16.64822895 -12.93038575 14.54911606 -12.61328125 12.44921875 C-12.43635742 11.21751953 -12.25943359 9.98582031 -12.07714844 8.71679688 C-10.12941208 2.35983707 -6.41421872 -0.44863155 0 0 Z " fill="#FAFAFA" transform="translate(394.06640625,49.58203125)"/>
<path d="M0 0 C3.10725263 0.80599576 4.24811132 2.01622125 6.18359375 4.56640625 C7.125 7.71875 7.125 7.71875 7.74609375 11.50390625 C7.86122314 12.18976807 7.97635254 12.87562988 8.0949707 13.58227539 C8.47716529 15.90765756 8.83130606 18.23631445 9.18359375 20.56640625 C9.3218457 21.44296875 9.46009766 22.31953125 9.60253906 23.22265625 C10.03654717 25.98149784 10.45692127 28.74202073 10.87109375 31.50390625 C11.06844116 32.79832642 11.06844116 32.79832642 11.26977539 34.11889648 C13.35754341 48.7108084 13.35754341 48.7108084 10.24609375 53.62890625 C6.67630504 55.887344 4.4980704 56.12565326 0.3671875 56.1328125 C-2.74006513 55.32681674 -3.88092382 54.11659125 -5.81640625 51.56640625 C-6.7578125 48.4140625 -6.7578125 48.4140625 -7.37890625 44.62890625 C-7.49403564 43.94304443 -7.60916504 43.25718262 -7.7277832 42.55053711 C-8.10997779 40.22515494 -8.46411856 37.89649805 -8.81640625 35.56640625 C-8.9546582 34.68984375 -9.09291016 33.81328125 -9.23535156 32.91015625 C-9.66935967 30.15131466 -10.08973377 27.39079177 -10.50390625 24.62890625 C-10.70125366 23.33448608 -10.70125366 23.33448608 -10.90258789 22.01391602 C-12.99035591 7.4220041 -12.99035591 7.4220041 -9.87890625 2.50390625 C-6.30911754 0.2454685 -4.1308829 0.00715924 0 0 Z " fill="#FAFAFA" transform="translate(320.81640625,49.43359375)"/>
<path d="M0 0 C3.11478231 0.68588136 4.80921896 2.10828148 6.93359375 4.42578125 C8.38311432 8.27700348 8.11365065 12.42042841 8.13671875 16.48046875 C8.14241882 17.25963654 8.1481189 18.03880432 8.1539917 18.84158325 C8.16342021 20.48731131 8.16996713 22.13305806 8.17382812 23.77880859 C8.18353329 26.28516838 8.21457582 28.79070747 8.24609375 31.296875 C8.25262467 32.89973474 8.25787479 34.50260031 8.26171875 36.10546875 C8.27406555 36.84940887 8.28641235 37.593349 8.2991333 38.35983276 C8.27461394 44.13924422 7.05827959 48.30109541 2.93359375 52.42578125 C0.9453125 52.796875 0.9453125 52.796875 -1.37890625 52.86328125 C-2.13816406 52.90324219 -2.89742187 52.94320312 -3.6796875 52.984375 C-7.39454309 52.11494071 -8.730341 50.41267394 -11.06640625 47.42578125 C-11.79909057 44.25746463 -11.76786415 41.16686507 -11.73046875 37.92578125 C-11.73525238 37.01248047 -11.74003601 36.09917969 -11.7449646 35.15820312 C-11.74835942 33.23175326 -11.73918619 31.30524546 -11.71826172 29.37890625 C-11.69148906 26.43488777 -11.71802247 23.49468155 -11.75 20.55078125 C-11.74669583 18.67577286 -11.74028943 16.80076683 -11.73046875 14.92578125 C-11.7405899 14.04857422 -11.75071106 13.17136719 -11.76113892 12.26757812 C-11.67577732 7.8028123 -11.50869063 5.98573064 -8.65380859 2.37133789 C-5.4089415 -0.06858907 -3.90257298 -0.25820426 0 0 Z " fill="#FAFAFA" transform="translate(563.06640625,81.57421875)"/>
<path d="M0 0 C0.639375 -0.01289062 1.27875 -0.02578125 1.9375 -0.0390625 C5.35881705 1.06249791 6.78664734 2.81026585 9 5.625 C9.73757475 8.87649359 9.70134335 12.05562422 9.6640625 15.37890625 C9.66884613 16.31677475 9.67362976 17.25464325 9.67855835 18.22093201 C9.6819533 20.19865603 9.67277922 22.17643648 9.65185547 24.15405273 C9.62505359 27.18144623 9.65163189 30.20514245 9.68359375 33.23242188 C9.68029017 35.15625818 9.673885 37.08009218 9.6640625 39.00390625 C9.67418365 39.90814835 9.68430481 40.81239044 9.69473267 41.74403381 C9.57778556 48.00997001 9.57778556 48.00997001 6.58740234 51.19311523 C4.11403077 52.56189465 2.78574946 53.16993144 0 53.125 C-0.639375 53.1353125 -1.27875 53.145625 -1.9375 53.15625 C-5.20468029 52.31470356 -6.67695054 51.0977947 -9 48.625 C-9.76070984 45.42541692 -9.70073592 42.28037534 -9.6640625 39.00390625 C-9.66884613 38.06699448 -9.67362976 37.1300827 -9.67855835 36.16477966 C-9.68195752 34.18527547 -9.67275383 32.20571515 -9.65185547 30.22631836 C-9.62511959 27.20103237 -9.65158658 24.17946658 -9.68359375 21.15429688 C-9.68028907 19.22915849 -9.67388162 17.30402243 -9.6640625 15.37890625 C-9.67418365 14.47668839 -9.68430481 13.57447052 -9.69473267 12.64491272 C-9.61059946 8.1202934 -9.46837373 6.22063374 -6.58740234 2.55688477 C-4.08680263 0.68981121 -3.05613092 -0.06161554 0 0 Z " fill="#FAFAFA" transform="translate(617,49.375)"/>
<path d="M0 0 C4.55555556 0.55555556 4.55555556 0.55555556 6 2 C6.07205511 3.68608966 6.08386068 5.37500659 6.0625 7.0625 C6.05347656 7.98160156 6.04445313 8.90070313 6.03515625 9.84765625 C6.02355469 10.55792969 6.01195313 11.26820312 6 12 C6.69867188 11.97679688 7.39734375 11.95359375 8.1171875 11.9296875 C9.02726562 11.91164063 9.93734375 11.89359375 10.875 11.875 C12.23238281 11.84019531 12.23238281 11.84019531 13.6171875 11.8046875 C16 12 16 12 18 14 C17.44444444 18.55555556 17.44444444 18.55555556 16 20 C14.31391034 20.07205511 12.62499341 20.08386068 10.9375 20.0625 C10.01839844 20.05347656 9.09929688 20.04445313 8.15234375 20.03515625 C7.44207031 20.02355469 6.73179688 20.01195313 6 20 C6.02320312 20.69867188 6.04640625 21.39734375 6.0703125 22.1171875 C6.09738281 23.48230469 6.09738281 23.48230469 6.125 24.875 C6.14820312 25.77992187 6.17140625 26.68484375 6.1953125 27.6171875 C6 30 6 30 4 32 C-0.55555556 31.44444444 -0.55555556 31.44444444 -2 30 C-2.07205511 28.31391034 -2.08386068 26.62499341 -2.0625 24.9375 C-2.05347656 24.01839844 -2.04445313 23.09929687 -2.03515625 22.15234375 C-2.02355469 21.44207031 -2.01195312 20.73179688 -2 20 C-3.04800781 20.03480469 -3.04800781 20.03480469 -4.1171875 20.0703125 C-5.02726562 20.08835937 -5.93734375 20.10640625 -6.875 20.125 C-7.77992187 20.14820312 -8.68484375 20.17140625 -9.6171875 20.1953125 C-12 20 -12 20 -14 18 C-13.44444444 13.44444444 -13.44444444 13.44444444 -12 12 C-10.31391034 11.92794489 -8.62499341 11.91613932 -6.9375 11.9375 C-6.01839844 11.94652344 -5.09929688 11.95554687 -4.15234375 11.96484375 C-3.44207031 11.97644531 -2.73179688 11.98804687 -2 12 C-2.02320313 11.30132812 -2.04640625 10.60265625 -2.0703125 9.8828125 C-2.08835937 8.97273438 -2.10640625 8.06265625 -2.125 7.125 C-2.14820313 6.22007813 -2.17140625 5.31515625 -2.1953125 4.3828125 C-2 2 -2 2 0 0 Z " fill="#0E1E9C" transform="translate(50,56)"/>
<path d="M0 0 C3.37556709 0.49218363 5.66045825 1.92190551 8.44140625 3.8359375 C9.27220703 4.40570313 10.10300781 4.97546875 10.95898438 5.5625 C11.81814453 6.160625 12.67730469 6.75875 13.5625 7.375 C14.85704102 8.26058594 14.85704102 8.26058594 16.17773438 9.1640625 C23.76098447 14.3963283 23.76098447 14.3963283 26 17 C26 17.66 26 18.32 26 19 C23.26531247 21.15606665 20.2209272 22.87623687 17.25 24.6875 C16.425 25.21150391 15.6 25.73550781 14.75 26.27539062 C13.95078125 26.76587891 13.1515625 27.25636719 12.328125 27.76171875 C11.5949707 28.21506592 10.86181641 28.66841309 10.10644531 29.13549805 C7.60816581 30.16081188 6.49074577 29.92154781 4 29 C3.26237342 25.03198618 2.53213792 21.06269207 1.80883789 17.09204102 C1.56153798 15.74042752 1.31219274 14.38918664 1.06079102 13.03833008 C0.70055995 11.10075586 0.34820056 9.16172331 -0.00390625 7.22265625 C-0.21861572 6.05484619 -0.4333252 4.88703613 -0.65454102 3.68383789 C-0.76854248 2.79817139 -0.88254395 1.91250488 -1 1 C-0.67 0.67 -0.34 0.34 0 0 Z " fill="#419DD7" transform="translate(94,91)"/>
<path d="M0 0 C2.99941508 0.672766 4.34176463 1.99230458 6.08984375 4.46875 C7.54132278 7.37170805 7.462234 9.24136779 7.08984375 12.46875 C4.62432651 16.76352197 4.62432651 16.76352197 2.08984375 18.46875 C-1.05268479 19.20685279 -3.76337488 19.17457012 -6.91015625 18.46875 C-9.41176443 16.59254387 -10.52961277 15.22983697 -11.91015625 12.46875 C-12.46373984 8.40913698 -12.03787636 6.69123019 -9.97265625 3.09375 C-7.02395316 -0.10769907 -4.20877965 -0.28011845 0 0 Z " fill="#FAFAFA" transform="translate(444.91015625,82.53125)"/>
<path d="M0 0 C0.82371094 0.3403125 0.82371094 0.3403125 1.6640625 0.6875 C1.19640025 5.241457 1.19640025 5.241457 -1.19140625 7.2421875 C-2.34576172 7.89574219 -2.34576172 7.89574219 -3.5234375 8.5625 C-8.54846703 11.65605885 -12.66538543 15.34639585 -15.3359375 20.6875 C-15.56623706 23.05873246 -15.74713692 25.43491943 -15.8984375 27.8125 C-15.98222656 29.09382813 -16.06601562 30.37515625 -16.15234375 31.6953125 C-16.21292969 32.68273438 -16.27351563 33.67015625 -16.3359375 34.6875 C-18.2109375 35.3125 -18.2109375 35.3125 -20.3359375 35.6875 C-22.97836027 33.04507723 -22.63445948 31.74337947 -22.6484375 28.0625 C-22.4869052 20.10940984 -20.70899363 14.33865152 -15.28125 8.43359375 C-5.12203271 -0.68522177 -5.12203271 -0.68522177 0 0 Z " fill="#8CB7F7" transform="translate(31.3359375,25.3125)"/>
<path d="M0 0 C1.65 0.33 3.3 0.66 5 1 C5 8.92 5 16.84 5 25 C3.35 25.33 1.7 25.66 0 26 C-1.71567792 24.28432208 -1.13015825 22.02627265 -1.1328125 19.6875 C-1.13410156 18.61242187 -1.13539063 17.53734375 -1.13671875 16.4296875 C-1.13091797 14.73199219 -1.13091797 14.73199219 -1.125 13 C-1.12886719 11.86820313 -1.13273438 10.73640625 -1.13671875 9.5703125 C-1.13542969 8.49523437 -1.13414062 7.42015625 -1.1328125 6.3125 C-1.13168457 5.31863281 -1.13055664 4.32476562 -1.12939453 3.30078125 C-1 1 -1 1 0 0 Z " fill="#91DFFC" transform="translate(227,117)"/>
<path d="M0 0 C2 3 2 3 1.8125 6.0625 C1 9 1 9 -2 11 C-4.83079592 11.35384949 -6.36830089 11.3920891 -8.8125 9.875 C-10.55198782 7.12844028 -10.39769128 5.18153026 -10 2 C-7.65569181 -2.27491494 -4.20074737 -1.06928115 0 0 Z " fill="#0D1C8C" transform="translate(163,65)"/>
<path d="M0 0 C2 3 2 3 1.75 6.0625 C1 9 1 9 -1 11 C-4.10347254 11.33015665 -6.15781176 11.50531294 -8.875 9.875 C-10.54663625 7.08893958 -10.46376624 5.18011138 -10 2 C-6.96457461 -1.61916104 -4.32701626 -1.31691799 0 0 Z " fill="#0D1C8D" transform="translate(183,49)"/>
<path d="M0 0 C2 3 2 3 1.8125 6.0625 C1 9 1 9 -2 11 C-4.5 11.375 -4.5 11.375 -7 11 C-9.2855347 8.87208838 -9.92303658 7.52591672 -10.375 4.4375 C-10 2 -10 2 -8.9375 0.125 C-5.79705307 -1.69848531 -3.4014687 -0.8658284 0 0 Z " fill="#0D1C8C" transform="translate(183,81)"/>
<path d="M0 0 C0.66 0.66 1.32 1.32 2 2 C1.8125 5.5 1.8125 5.5 1 9 C-2 11 -2 11 -5.0625 10.8125 C-8 10 -8 10 -10 7 C-10.35242362 4.18061103 -10.34645957 2.61139923 -8.9375 0.125 C-5.82785011 -1.68060316 -3.38260527 -0.79952488 0 0 Z " fill="#0D1B8B" transform="translate(203,65)"/>
<path d="M0 0 C1.32 0.33 2.64 0.66 4 1 C4 4.96 4 8.92 4 13 C2.35 13.33 0.7 13.66 -1 14 C-2.73849628 12.26150372 -2.17216296 9.9213363 -2.1875 7.5625 C-2.20167969 6.57378906 -2.21585938 5.58507812 -2.23046875 4.56640625 C-2 2 -2 2 0 0 Z " fill="#8DC5F9" transform="translate(11,69)"/>
<path d="M0 0 C1.67542976 0.28604898 3.34385343 0.61781233 5 1 C5 3.64 5 6.28 5 9 C3.34385343 9.38218767 1.67542976 9.71395102 0 10 C-1 9 -1 9 -1.1328125 7.1875 C-1.13023437 6.465625 -1.12765625 5.74375 -1.125 5 C-1.12757813 4.278125 -1.13015625 3.55625 -1.1328125 2.8125 C-1 1 -1 1 0 0 Z " fill="#8DD4FA" transform="translate(227,101)"/>
</svg>
